<?xml version="1.0" ?><svg viewBox="0 0 64 64" xmlns="http://www.w3.org/2000/svg"><g id="Glyph"><g data-name="Glyph" id="Glyph-2"><path d="M32,15H52a1,1,0,0,0,0-2H32a1,1,0,0,0,0,2Z"/><path d="M52,17H37a1,1,0,0,0,0,2H52a1,1,0,0,0,0-2Z"/><path d="M59,14H57V9a1,1,0,0,0-1-1H50V3a1,1,0,0,0-1-1H7A1,1,0,0,0,6,3V14H5.68A3.85,3.85,0,0,0,2,18V57.92A3.93,3.93,0,0,0,5.74,62H58.41A3.86,3.86,0,0,0,62,57.92V17A3,3,0,0,0,59,14ZM13,9v5.06A3.87,3.87,0,0,0,10,18V56H8V4H48V8H14A1,1,0,0,0,13,9ZM36,56A14,14,0,1,1,50,42,14,14,0,0,1,36,56ZM55,22H34.36a.83.83,0,0,1-.57-.23l-7.42-7A2.83,2.83,0,0,0,24.43,14H15V10H55Z"/><path d="M36,30A12,12,0,1,0,48,42,12,12,0,0,0,36,30Zm7.24,19.71a1,1,0,0,1-1.42,0l-4.21-4.22a6.7,6.7,0,0,1-3.84,1.2,6.77,6.77,0,1,1,5.3-2.57l4.17,4.17A1,1,0,0,1,43.24,49.71Z"/><path d="M38.53,39.93a4.77,4.77,0,1,1-4.76-4.77A4.76,4.76,0,0,1,38.53,39.93Z"/></g></g></svg>