<?xml version="1.0" ?><svg viewBox="0 0 512 512" xmlns="http://www.w3.org/2000/svg"><g id="Subscribe"><path d="M323.4429,55.4673H188.5571a48.0577,48.0577,0,0,0-48.0034,48.0034V408.5293a48.0577,48.0577,0,0,0,48.0034,48.0034H323.4429a48.0577,48.0577,0,0,0,48.0034-48.0034V103.4707A48.0577,48.0577,0,0,0,323.4429,55.4673Zm-134.8858,16H323.4429a32.0394,32.0394,0,0,1,32.0034,32.0034V379.3669H156.5537V103.4707A32.0394,32.0394,0,0,1,188.5571,71.4673Zm41.54,342.2827a8,8,0,0,1,8-8h35.8066a8,8,0,0,1,0,16H238.0967A8,8,0,0,1,230.0967,413.75Z"/><path d="M415.1421,198.6011a8,8,0,0,0-11.3135,11.3135,31.8375,31.8375,0,0,1,0,44.9741,8,8,0,1,0,11.3135,11.3134A47.8552,47.8552,0,0,0,415.1421,198.6011Z"/><path d="M442.1372,181.6064A8,8,0,0,0,430.8237,192.92a55.9,55.9,0,0,1,0,78.9639,8,8,0,1,0,11.3135,11.3135A71.9168,71.9168,0,0,0,442.1372,181.6064Z"/><path d="M108.1714,199.6763a8,8,0,0,0-11.3135,0,47.8552,47.8552,0,0,0,0,67.601,8,8,0,1,0,11.3135-11.3134,31.8376,31.8376,0,0,1,0-44.9742A7.9991,7.9991,0,0,0,108.1714,199.6763Z"/><path d="M81.1763,193.9946a8,8,0,0,0-11.3135-11.3134,71.9167,71.9167,0,0,0,0,101.5908,8,8,0,1,0,11.3135-11.3135A55.9,55.9,0,0,1,81.1763,193.9946Z"/><path d="M181.6011,312.2905H221.94a35.0841,35.0841,0,0,0,68.1192,0h40.3393a8,8,0,0,0,5.8291-13.479,81.92,81.92,0,0,1-21.8926-63.2173l.9932-11.2963a60.23,60.23,0,0,0-31.4347-63.5629,30.5142,30.5142,0,1,0-55.7878,0,60.23,60.23,0,0,0-31.4347,63.5629l.9932,11.2963a81.92,81.92,0,0,1-21.8926,63.2173,8,8,0,0,0,5.8291,13.479Zm16.4316-16a97.9472,97.9472,0,0,0,9.8016-19.4868h96.3314a97.9472,97.9472,0,0,0,9.8016,19.4868Zm43.4531-147.9018a14.5142,14.5142,0,0,1,29.0284,0,14.3739,14.3739,0,0,1-1.7331,6.8471,59.9238,59.9238,0,0,0-25.5622,0A14.3739,14.3739,0,0,1,241.4858,148.3887ZM256,169.8569a44.2429,44.2429,0,0,1,43.5127,52.001q-.0615.3478-.0928.7l-1.0229,11.6353a97.6553,97.6553,0,0,0,1.3305,26.6108h-87.455a97.6553,97.6553,0,0,0,1.3305-26.6108L212.58,222.5576q-.0307-.3516-.0928-.7A44.2429,44.2429,0,0,1,256,169.8569Z"/></g></svg>