<?xml version="1.0" ?><svg viewBox="0 0 64 64" xmlns="http://www.w3.org/2000/svg"><g id="Glyph"><g data-name="Glyph" id="Glyph-2"><path d="M32,15H52a1,1,0,0,0,0-2H32a1,1,0,0,0,0,2Z"/><path d="M52,17H37a1,1,0,0,0,0,2H52a1,1,0,0,0,0-2Z"/><path d="M59,14H57V9a1,1,0,0,0-1-1H50V3a1,1,0,0,0-1-1H7A1,1,0,0,0,6,3V14H5.68A3.85,3.85,0,0,0,2,18V57.92A3.93,3.93,0,0,0,5.74,62H58.41A3.86,3.86,0,0,0,62,57.92V17A3,3,0,0,0,59,14ZM13,9v5.06A3.87,3.87,0,0,0,10,18V56H8V4H48V8H14A1,1,0,0,0,13,9ZM36,56A14,14,0,1,1,50,42,14,14,0,0,1,36,56ZM55,22H34.36a.83.83,0,0,1-.57-.23l-7.42-7A2.83,2.83,0,0,0,24.43,14H15V10H55Z"/><path d="M36,30A12,12,0,1,0,48,42,12,12,0,0,0,36,30Zm9.37,15.7-1.5,2.6a1,1,0,0,1-1.28.41l-2.42-1.1a7,7,0,0,1-1.42.82l-.26,2.67a1,1,0,0,1-1,.9h-3a1,1,0,0,1-1-.9l-.26-2.67a7,7,0,0,1-1.42-.82l-2.42,1.1a1,1,0,0,1-1.28-.41l-1.5-2.6a1,1,0,0,1,.28-1.31l2.17-1.57a6.43,6.43,0,0,1,0-1.64l-2.17-1.57a1,1,0,0,1-.28-1.31l1.5-2.6a1,1,0,0,1,1.28-.41l2.42,1.1a7,7,0,0,1,1.42-.82l.26-2.67a1,1,0,0,1,1-.9h3a1,1,0,0,1,1,.9l.26,2.67a7,7,0,0,1,1.42.82l2.42-1.1a1,1,0,0,1,1.28.41l1.5,2.6a1,1,0,0,1-.28,1.31l-2.17,1.57a6.43,6.43,0,0,1,0,1.64l2.17,1.57A1,1,0,0,1,45.37,45.7Z"/><path d="M40.86,43.05a5,5,0,0,0,0-2.1,1,1,0,0,1,.39-1l1.93-1.4-.59-1-2.17,1a1,1,0,0,1-1.08-.17,4.87,4.87,0,0,0-1.82-1.06,1,1,0,0,1-.69-.85L36.59,34H35.41l-.24,2.39a1,1,0,0,1-.69.85,4.87,4.87,0,0,0-1.82,1.06,1,1,0,0,1-1.08.17l-2.17-1-.59,1,1.93,1.4a1,1,0,0,1,.39,1,5,5,0,0,0,0,2.1,1,1,0,0,1-.39,1l-1.93,1.4.59,1,2.17-1a1,1,0,0,1,1.08.17,4.87,4.87,0,0,0,1.82,1.06,1,1,0,0,1,.69.85L35.41,50h1.18l.24-2.39a1,1,0,0,1,.69-.85,4.87,4.87,0,0,0,1.82-1.06,1,1,0,0,1,1.08-.17l2.17,1,.59-1-1.93-1.4A1,1,0,0,1,40.86,43.05ZM36,45a3,3,0,1,1,3-3A3,3,0,0,1,36,45Z"/><ellipse cx="36" cy="42" rx="0.99" ry="1"/></g></g></svg>